<svg width="25" height="24" viewBox="0 0 25 24" fill="none" xmlns="http://www.w3.org/2000/svg">
<path d="M22.5 22L20.5 20M12 21C13.2476 21 14.4829 20.7543 15.6355 20.2769C16.7881 19.7994 17.8354 19.0997 18.7175 18.2175C19.5997 17.3354 20.2994 16.2881 20.7769 15.1355C21.2543 13.9829 21.5 12.7476 21.5 11.5C21.5 10.2524 21.2543 9.0171 20.7769 7.86451C20.2994 6.71191 19.5997 5.66464 18.7175 4.78249C17.8354 3.90033 16.7881 3.20056 15.6355 2.72314C14.4829 2.24572 13.2476 2 12 2C9.48044 2 7.06408 3.00089 5.28249 4.78249C3.50089 6.56408 2.5 8.98044 2.5 11.5C2.5 14.0196 3.50089 16.4359 5.28249 18.2175C7.06408 19.9991 9.48044 21 12 21Z" stroke="#898E99" stroke-width="1.5" stroke-linecap="round" stroke-linejoin="round"/>
</svg>
